# xmcd
#
# Track frame offsets:
#	150
#	11240
#	17936
#	28955
#	41150
#	52374
#	64098
#	78400
#	94270
#	111032
#	123371
#	134038
#	141529
#
# Disc length: 2048 seconds
# Revision: 0
# Processed by: cddbd v1.5.2PL0 Copyright (c) Steve Scherf et al.
# Submitted via: dBpowerAMP V12.0
#
DISCID=cb07fe0d
DTITLE=Allan Sanders - Look Out Nashville
DYEAR=1900
DGENRE=Bluegrass
TTITLE0=Grandpa Was A Farmer
TTITLE1=New River Train
TTITLE2=Long Black Train
TTITLE3=I Saw The Light
TTITLE4=Unclouded Day
TTITLE5=Kentucky Waltz
TTITLE6=East Tennessee Blue
TTITLE7=Mama's Not Dead
TTITLE8=Old Joe Clark
TTITLE9=Lookout Nashville
TTITLE10=Big Sandy River
TTITLE11=Old Joe Clark
TTITLE12=Life's Highway
EXTD=
EXTT0=
EXTT1=
EXTT2=
EXTT3=
EXTT4=
EXTT5=
EXTT6=
EXTT7=
EXTT8=
EXTT9=
EXTT10=
EXTT11=
EXTT12=
PLAYORDER=
